<svg width="205" height="88" viewBox="0 0 205 88" fill="none" xmlns="http://www.w3.org/2000/svg">
<path d="M35.44 87.24V69.36H0.4V55.08L40.6 3.48H51.52V54.96H62.08V69.36H51.52V87.24H35.44ZM16.48 54.96H37.24V27.84L16.48 54.96ZM134.355 36.84C134.355 43.88 132.995 50.16 130.275 55.68C127.635 61.12 123.955 65.4 119.235 68.52C114.595 71.64 109.315 73.2 103.395 73.2C97.4747 73.2 92.1547 71.64 87.4347 68.52C82.7947 65.4 79.1147 61.12 76.3947 55.68C73.7547 50.16 72.4347 43.88 72.4347 36.84C72.4347 29.8 73.7547 23.56 76.3947 18.12C79.1147 12.6 82.7947 8.28 87.4347 5.16C92.1547 1.96 97.4747 0.36 103.395 0.36C109.315 0.36 114.595 1.96 119.235 5.16C123.955 8.28 127.635 12.6 130.275 18.12C132.995 23.56 134.355 29.8 134.355 36.84ZM118.155 36.84C118.155 32.52 117.515 28.76 116.235 25.56C115.035 22.28 113.315 19.72 111.075 17.88C108.835 16.04 106.275 15.12 103.395 15.12C100.435 15.12 97.8347 16.04 95.5947 17.88C93.3547 19.72 91.5947 22.28 90.3147 25.56C89.1147 28.76 88.5147 32.52 88.5147 36.84C88.5147 41.16 89.1147 44.92 90.3147 48.12C91.5947 51.32 93.3547 53.84 95.5947 55.68C97.8347 57.52 100.435 58.44 103.395 58.44C106.275 58.44 108.795 57.52 110.955 55.68C113.195 53.84 114.955 51.32 116.235 48.12C117.515 44.84 118.155 41.08 118.155 36.84ZM177.706 87.24V69.36H142.666V55.08L182.866 3.48H193.786V54.96H204.346V69.36H193.786V87.24H177.706ZM158.746 54.96H179.506V27.84L158.746 54.96Z" fill="#FF455B"/>
</svg>
