<svg width="79" height="126" viewBox="0 0 79 126" fill="none" xmlns="http://www.w3.org/2000/svg">
<path fill-rule="evenodd" clip-rule="evenodd" d="M35.5715 114.68L21.0719 110.795L24.957 125.295L35.5715 114.68ZM31.9318 115.655L23.7363 113.459L25.9323 121.655L31.9318 115.655Z" fill="url(#paint0_linear_2250_616)"/>
<path fill-rule="evenodd" clip-rule="evenodd" d="M22.7321 14.4312L37.6861 13.1229L29.0761 0.826479L22.7321 14.4312ZM25.8188 12.2699L34.271 11.5304L29.4045 4.58025L25.8188 12.2699Z" fill="url(#paint1_linear_2250_616)"/>
<path d="M0.173828 56.4171L6.17383 52.953L6.17383 59.8812L0.173828 56.4171Z" fill="url(#paint2_linear_2250_616)"/>
<path d="M63.0023 3.93183L69.6944 5.72498L64.7954 10.624L63.0023 3.93183Z" fill="url(#paint3_linear_2250_616)"/>
<path d="M69.3662 105.76L72.8303 99.7603L76.2944 105.76L69.3662 105.76Z" fill="url(#paint4_linear_2250_616)"/>
<g opacity="0.5">
<path d="M49.5004 40C41.4694 40 34.9355 46.5338 34.9355 54.5649C34.9355 61.7469 39.9172 71.1609 44.0963 77.7934C44.3659 78.2214 44.9312 78.3497 45.3593 78.08C45.7871 77.8105 45.9154 77.245 45.6458 76.8172C38.3075 65.1702 36.7672 58.2877 36.7672 54.5649C36.7672 47.5437 42.4793 41.8315 49.5006 41.8315C56.5219 41.8315 62.234 47.5436 62.234 54.5649C62.234 65.9671 48.9105 83.3503 48.7759 83.5244C48.4668 83.9248 48.5406 84.4999 48.9409 84.8089C49.1076 84.9377 49.3046 85 49.5001 85C49.7739 85 50.045 84.8776 50.2254 84.6441C50.7905 83.9127 64.0656 66.5922 64.0656 54.5647C64.0653 46.5338 57.5316 40 49.5004 40Z" fill="white"/>
<path d="M49.5002 49.9205C50.0059 49.9205 50.416 49.5104 50.416 49.0047C50.416 48.4991 50.0059 48.089 49.5002 48.089C45.9295 48.089 43.0244 50.994 43.0244 54.5648C43.0244 58.1356 45.9295 61.0406 49.5002 61.0406C53.071 61.0406 55.976 58.1356 55.976 54.5648C55.976 53.1387 55.5214 51.7858 54.6609 50.6523C54.3552 50.2495 53.7807 50.1709 53.3778 50.4766C52.975 50.7823 52.8963 51.3568 53.2021 51.7597C53.8187 52.5719 54.1446 53.5419 54.1446 54.5648C54.1446 57.1257 52.0611 59.2091 49.5002 59.2091C46.9394 59.2091 44.8559 57.1257 44.8559 54.5648C44.8559 52.0039 46.9395 49.9205 49.5002 49.9205Z" fill="white"/>
</g>
<defs>
<linearGradient id="paint0_linear_2250_616" x1="35.5715" y1="114.68" x2="18.8288" y2="119.166" gradientUnits="userSpaceOnUse">
<stop stop-color="#FF455B"/>
<stop offset="1" stop-color="#FF7245"/>
</linearGradient>
<linearGradient id="paint1_linear_2250_616" x1="22.7321" y1="14.4312" x2="36.9307" y2="4.48917" gradientUnits="userSpaceOnUse">
<stop stop-color="#FF455B"/>
<stop offset="1" stop-color="#FF7245"/>
</linearGradient>
<linearGradient id="paint2_linear_2250_616" x1="0.173828" y1="56.4171" x2="10.8405" y2="56.4171" gradientUnits="userSpaceOnUse">
<stop stop-color="#FF455B"/>
<stop offset="1" stop-color="#FF7245"/>
</linearGradient>
<linearGradient id="paint3_linear_2250_616" x1="63.0023" y1="3.93183" x2="70.5447" y2="11.4743" gradientUnits="userSpaceOnUse">
<stop stop-color="#FF455B"/>
<stop offset="1" stop-color="#FF7245"/>
</linearGradient>
<linearGradient id="paint4_linear_2250_616" x1="69.3662" y1="105.76" x2="78.6038" y2="100.427" gradientUnits="userSpaceOnUse">
<stop stop-color="#FF455B"/>
<stop offset="1" stop-color="#FF7245"/>
</linearGradient>
</defs>
</svg>
