<svg width="100" height="30" viewBox="0 0 100 30" fill="none" xmlns="http://www.w3.org/2000/svg">
<g opacity="0.5">
<path d="M39.9409 21.8313V7.31774H43.1209V21.8313H39.9409Z" fill="white"/>
<path d="M53.1057 22.0148C51.5564 22.0148 50.2179 21.7158 49.09 21.1179C47.9756 20.5199 47.1127 19.6638 46.5011 18.5495C45.9032 17.4351 45.6042 16.1034 45.6042 14.5542C45.6042 13.0321 45.9032 11.7139 46.5011 10.5996C47.1127 9.48526 47.9688 8.62912 49.0696 8.03118C50.1703 7.43325 51.4681 7.13428 52.963 7.13428C53.9958 7.13428 54.9674 7.27697 55.8779 7.56235C56.7884 7.84773 57.5358 8.24862 58.1202 8.76502L57.101 11.0481C56.4079 10.5588 55.742 10.2055 55.1033 9.98807C54.4782 9.77064 53.7919 9.66193 53.0445 9.66193C51.6448 9.66193 50.5916 10.0696 49.8849 10.885C49.1919 11.7004 48.8453 12.9234 48.8453 14.5542C48.8453 16.2257 49.2055 17.4827 49.9257 18.3252C50.6595 19.1542 51.7671 19.5687 53.2483 19.5687C53.7647 19.5687 54.2811 19.5279 54.7975 19.4464C55.3275 19.3513 55.8371 19.2154 56.3264 19.0387L55.6333 20.0783V16.0422H52.7795V13.8203H58.5075V20.9344C58.0319 21.1655 57.4951 21.3625 56.8971 21.5256C56.3128 21.6886 55.6945 21.811 55.0422 21.8925C54.4035 21.974 53.758 22.0148 53.1057 22.0148Z" fill="white"/>
<path d="M61.221 21.8313V7.31774H71.2297V9.78423H64.3398V13.2088H70.8016V15.6957H64.3398V19.3648H71.2297V21.8313H61.221Z" fill="white"/>
<path d="M73.4237 21.8313V7.31774H75.7679L83.5954 17.306L83.0043 17.6933V7.31774H86.0008V21.8313H83.6362L75.8494 11.8838L76.3998 11.4557V21.8313H73.4237Z" fill="white"/>
<path d="M93.9866 22.0148C93.2528 22.0148 92.5326 21.9536 91.8259 21.8313C91.1328 21.6954 90.4805 21.5052 89.869 21.2606C89.2575 21.0024 88.7275 20.6966 88.279 20.3433L89.3186 18.0602C90.0389 18.5631 90.7863 18.9368 91.5609 19.1814C92.3355 19.426 93.1509 19.5483 94.007 19.5483C94.9311 19.5483 95.6378 19.3988 96.127 19.0998C96.6298 18.8009 96.8812 18.3864 96.8812 17.8564C96.8812 17.5438 96.7793 17.2788 96.5754 17.0614C96.3716 16.844 96.0454 16.6537 95.597 16.4907C95.1485 16.3276 94.5506 16.1645 93.8032 16.0014C92.8655 15.8112 92.0637 15.587 91.3978 15.3288C90.7319 15.0706 90.1884 14.7716 89.7671 14.4318C89.3594 14.0921 89.0604 13.698 88.8702 13.2496C88.6799 12.7875 88.5848 12.2575 88.5848 11.6596C88.5848 10.8034 88.8226 10.0356 89.2982 9.35616C89.7875 8.6631 90.4601 8.11952 91.3163 7.72542C92.186 7.33133 93.1984 7.13428 94.3535 7.13428C95.0466 7.13428 95.7193 7.20222 96.3716 7.33812C97.0375 7.47401 97.649 7.66427 98.2062 7.90888C98.7633 8.15349 99.2322 8.45246 99.6127 8.80579L98.5935 11.0888C97.9412 10.586 97.2617 10.2123 96.555 9.96769C95.8484 9.72308 95.1281 9.60077 94.3943 9.60077C93.5653 9.60077 92.9063 9.77064 92.417 10.1104C91.9278 10.4365 91.6832 10.885 91.6832 11.4557C91.6832 11.7683 91.7783 12.0333 91.9686 12.2507C92.1588 12.4682 92.4714 12.6652 92.9063 12.8419C93.3547 13.0049 93.9662 13.1748 94.7408 13.3515C95.6513 13.5417 96.4395 13.766 97.1054 14.0242C97.7713 14.2824 98.3149 14.5813 98.7362 14.9211C99.171 15.2472 99.4904 15.6345 99.6942 16.083C99.8981 16.5178 100 17.0206 100 17.5914C100 18.5019 99.7622 19.2901 99.2865 19.956C98.8109 20.6083 98.1246 21.1179 97.2277 21.4848C96.3308 21.8381 95.2505 22.0148 93.9866 22.0148Z" fill="white"/>
<path d="M9.26263 29.0272V0H19.4548C22.5804 0 25.2439 0.570758 27.4454 1.71228C29.6469 2.82662 31.3184 4.47095 32.4599 6.64527C33.6286 8.79241 34.213 11.4016 34.213 14.4728C34.213 17.5712 33.6286 20.2076 32.4599 22.3819C31.2912 24.5291 29.6061 26.1734 27.4046 27.3149C25.2031 28.4564 22.5532 29.0272 19.4548 29.0272H9.26263ZM13.4618 25.5211H19.1694C22.7298 25.5211 25.407 24.597 27.2008 22.7488C28.9946 20.9007 29.8915 18.142 29.8915 14.4728C29.8915 7.16167 26.3175 3.50609 19.1694 3.50609H13.4618V25.5211Z" fill="white"/>
<path d="M28.3015 24.9655C28.3015 26.9277 26.2812 28.2397 24.4887 27.4416L-5.50787e-07 16.5386L-7.01949e-07 13.0804L24.525 2.1613C26.3005 1.37081 28.3015 2.67032 28.3015 4.61382L3.10045 15.3859L3.10045 14.1139L28.3015 24.9655Z" fill="white"/>
</g>
</svg>
