<svg width="120" height="35" viewBox="0 0 120 35" fill="none" xmlns="http://www.w3.org/2000/svg">
<path d="M47.9291 26.1979V8.78155H51.7451V26.1979H47.9291Z" fill="white"/>
<path d="M63.7268 26.418C61.8678 26.418 60.2615 26.0593 58.908 25.3417C57.5708 24.6242 56.5353 23.5968 55.8014 22.2596C55.0839 20.9224 54.7251 19.3243 54.7251 17.4653C54.7251 15.6388 55.0839 14.057 55.8014 12.7198C56.5353 11.3826 57.5626 10.3552 58.8835 9.63769C60.2044 8.92016 61.7618 8.5614 63.5556 8.5614C64.795 8.5614 65.9609 8.73263 67.0535 9.07508C68.1461 9.41754 69.043 9.89861 69.7443 10.5183L68.5212 13.2579C67.6895 12.6709 66.8905 12.2469 66.124 11.986C65.3739 11.725 64.5503 11.5946 63.6534 11.5946C61.9738 11.5946 60.7099 12.0838 59.862 13.0622C59.0303 14.0407 58.6144 15.5084 58.6144 17.4653C58.6144 19.4711 59.0466 20.9795 59.9109 21.9906C60.7915 22.9853 62.1205 23.4827 63.898 23.4827C64.5177 23.4827 65.1374 23.4338 65.7571 23.3359C66.3931 23.2218 67.0046 23.0587 67.5917 22.8467L66.76 24.0942V19.2509H63.3354V16.5847H70.209V25.1216C69.6383 25.3988 68.9941 25.6353 68.2766 25.831C67.5754 26.0266 66.8334 26.1734 66.0506 26.2713C65.2842 26.3691 64.5096 26.418 63.7268 26.418Z" fill="white"/>
<path d="M73.4652 26.1979V8.78155H85.4756V11.7413H77.2078V15.8508H84.9619V18.8351H77.2078V23.2381H85.4756V26.1979H73.4652Z" fill="white"/>
<path d="M88.1084 26.1979V8.78155H90.9215L100.315 20.7675L99.6052 21.2323V8.78155H103.201V26.1979H100.363L91.0193 14.2608L91.6798 13.7472V26.1979H88.1084Z" fill="white"/>
<path d="M112.784 26.418C111.903 26.418 111.039 26.3446 110.191 26.1979C109.359 26.0348 108.577 25.8065 107.843 25.513C107.109 25.2031 106.473 24.8362 105.935 24.4122L107.182 21.6726C108.047 22.2759 108.944 22.7244 109.873 23.0179C110.803 23.3115 111.781 23.4582 112.808 23.4582C113.917 23.4582 114.765 23.2788 115.352 22.9201C115.956 22.5613 116.257 22.0639 116.257 21.428C116.257 21.0529 116.135 20.7349 115.891 20.474C115.646 20.2131 115.255 19.9847 114.716 19.7891C114.178 19.5934 113.461 19.3977 112.564 19.202C111.439 18.9737 110.476 18.7046 109.677 18.3948C108.878 18.0849 108.226 17.7262 107.721 17.3185C107.231 16.9108 106.873 16.4379 106.644 15.8997C106.416 15.3453 106.302 14.7093 106.302 13.9918C106.302 12.9644 106.587 12.043 107.158 11.2277C107.745 10.396 108.552 9.74369 109.58 9.27077C110.623 8.79786 111.838 8.5614 113.224 8.5614C114.056 8.5614 114.863 8.64294 115.646 8.80601C116.445 8.96909 117.179 9.19739 117.847 9.49092C118.516 9.78446 119.079 10.1432 119.535 10.5672L118.312 13.3069C117.529 12.7035 116.714 12.255 115.866 11.9615C115.018 11.668 114.154 11.5212 113.273 11.5212C112.278 11.5212 111.488 11.725 110.9 12.1327C110.313 12.5241 110.02 13.0622 110.02 13.7472C110.02 14.1222 110.134 14.4402 110.362 14.7011C110.591 14.9621 110.966 15.1985 111.488 15.4105C112.026 15.6062 112.76 15.81 113.689 16.022C114.782 16.2503 115.727 16.5194 116.527 16.8293C117.326 17.1391 117.978 17.4979 118.483 17.9056C119.005 18.2969 119.388 18.7617 119.633 19.2998C119.878 19.8217 120 20.425 120 21.11C120 22.2026 119.715 23.1484 119.144 23.9474C118.573 24.7302 117.75 25.3417 116.673 25.782C115.597 26.206 114.301 26.418 112.784 26.418Z" fill="white"/>
<path d="M11.1152 34.8326V0H23.3457C27.0964 0 30.2927 0.68491 32.9345 2.05473C35.5763 3.39194 37.5821 5.36514 38.9519 7.97433C40.3544 10.5509 41.0556 13.6819 41.0556 17.3674C41.0556 21.0855 40.3544 24.2491 38.9519 26.8583C37.5495 29.4349 35.5274 31.4081 32.8856 32.7779C30.2438 34.1477 27.0638 34.8326 23.3457 34.8326H11.1152ZM16.1542 30.6253H23.0033C27.2758 30.6253 30.4884 29.5164 32.641 27.2986C34.7935 25.0808 35.8698 21.7704 35.8698 17.3674C35.8698 8.59401 31.581 4.20731 23.0033 4.20731H16.1542V30.6253Z" fill="white"/>
<path d="M33.9618 29.9586L33.9618 30.3475C33.9618 32.5193 31.7257 33.9715 29.7416 33.0881L-6.60944e-07 19.8464L-8.42339e-07 15.6966L29.7416 2.45486C31.7257 1.57151 33.9618 3.02368 33.9618 5.1955L33.9618 5.53663L3.72054 18.4631L3.72054 16.9367L33.9618 29.9586Z" fill="white"/>
</svg>
