<svg width="20" height="20" viewBox="0 0 20 20" fill="none" xmlns="http://www.w3.org/2000/svg">
<path fill-rule="evenodd" clip-rule="evenodd" d="M18.8636 1.13644C19.0674 1.34017 19.1364 1.64259 19.0412 1.91453L13.2079 18.5812C13.1063 18.8715 12.8378 19.0703 12.5305 19.0828C12.2233 19.0954 11.9395 18.9191 11.8146 18.638L8.59843 11.4016L1.36203 8.18546C1.08102 8.06057 0.904718 7.77679 0.917253 7.46953C0.929789 7.16227 1.12862 6.8938 1.41887 6.79221L18.0855 0.958875C18.3575 0.863696 18.6599 0.93271 18.8636 1.13644ZM3.69994 7.58306L9.47123 10.1481C9.64091 10.2235 9.77658 10.3592 9.85199 10.5288L12.417 16.3001L17.1108 2.88925L3.69994 7.58306Z" fill="white"/>
</svg>
