<svg width="125" height="79" viewBox="0 0 125 79" fill="none" xmlns="http://www.w3.org/2000/svg">
<g opacity="0.5" clip-path="url(#clip0_1249_1426)">
<path d="M70.0002 48.0234C70.5395 48.0234 70.9767 47.5862 70.9767 47.0469C70.9767 46.5075 70.5395 46.0703 70.0002 46.0703C69.4608 46.0703 69.0236 46.5075 69.0236 47.0469C69.0236 47.5862 69.4608 48.0234 70.0002 48.0234Z" fill="white"/>
<path d="M70.1677 51.2313C69.6346 51.1521 69.1376 51.5208 69.0586 52.0543C68.7917 53.8565 67.2683 55.3512 64.9835 56.0528C62.5414 56.8027 59.1517 56.5513 57.0838 54.2995C56.719 53.9022 56.1012 53.876 55.704 54.2407C55.3068 54.6055 55.2805 55.2233 55.6452 55.6205C56.8423 56.9241 58.4682 57.8126 60.3471 58.1898C61.0106 58.323 61.6989 58.3891 62.3916 58.3891C63.4618 58.3891 64.5424 58.2314 65.5569 57.9199C68.5793 56.9919 70.6107 54.9061 70.9907 52.3404C71.0697 51.8069 70.7012 51.3103 70.1677 51.2313Z" fill="white"/>
<path d="M83.7409 42.5948C81.9659 40.5371 79.5161 39.2029 76.5673 38.6671C79.3905 36.7618 81.8257 34.8657 83.562 33.2112C86.2094 30.6887 87.0971 28.916 86.3559 27.6329C85.531 26.2038 83.1501 26.2137 78.8624 27.6643C75.2396 28.8898 70.7266 31.0185 66.1547 33.6581C65.3649 34.114 64.5826 34.5808 63.8172 35.0512C63.2495 33.4479 63.6239 31.6166 64.8765 30.0286C65.8146 28.8392 66.0241 27.3284 65.4232 26.0857C64.7933 24.7833 63.4109 24.0035 61.7229 24H61.677C55.7194 24 49.8922 26.3507 45.2688 30.619C40.6397 34.8927 37.8057 40.5501 37.2889 46.549C36.6672 53.7736 38.9765 60.6422 43.7915 65.8894C48.5214 71.0438 55.2269 74 62.1888 74C65.9368 74 69.4554 73.3143 72.6465 71.9616C75.5644 70.7248 78.1557 68.9588 80.3482 66.7124C82.3811 64.6295 83.984 62.2317 85.1122 59.5855C86.1858 57.0676 86.7724 54.3992 86.8087 51.869C86.8615 48.1896 85.8007 44.9826 83.7409 42.5948ZM63.9313 37.2801C64.9649 36.6282 66.0414 35.9787 67.1311 35.3496C71.3583 32.909 75.5677 30.8987 78.984 29.6891C82.7447 28.3575 84.2845 28.4444 84.6434 28.6163C84.6124 28.8436 84.3302 29.8546 81.8623 32.1272C79.8016 34.025 76.7923 36.2567 73.3889 38.4113C72.313 39.0927 71.1932 39.7698 70.0609 40.4237C68.4999 41.3247 66.94 42.1672 65.4091 42.9386C65.1036 42.0471 64.7121 41.1819 64.2356 40.3565C63.7738 39.5566 63.2382 38.8057 62.6394 38.1108C63.0632 37.8331 63.4943 37.5554 63.9313 37.2801ZM63.6397 43.8049C60.8822 45.1126 58.3519 46.1096 56.3313 46.6879C56.2262 46.1827 56.0412 45.6944 55.7788 45.2395C55.5301 44.8084 55.2181 44.4229 54.8574 44.0905C56.3701 42.6307 58.4992 40.9393 61.0062 39.2089C61.5883 39.8594 62.1043 40.5709 62.5442 41.3329C62.9992 42.121 63.3654 42.9499 63.6397 43.8049ZM84.8557 51.841C84.7165 61.5586 76.0107 72.0469 62.1888 72.0469C55.7725 72.0469 49.5916 69.3213 45.2306 64.5689C40.7899 59.7297 38.6607 53.3896 39.2349 46.7166C40.2212 35.2676 50.2887 25.9531 61.677 25.9531H61.7209C62.6552 25.9551 63.3638 26.3133 63.6648 26.936C63.9417 27.5085 63.8214 28.2124 63.3429 28.819C61.5828 31.0505 61.1414 33.7949 62.1358 36.1089C61.6123 36.4462 61.0977 36.785 60.6006 37.121C60.5982 37.1226 60.5959 37.1241 60.5936 37.1257C57.4883 39.2211 54.866 41.3054 53.1213 43.0594C51.798 42.6071 50.3441 42.739 49.1084 43.4522C47.0795 44.6242 44.4154 50.0856 43.902 51.1686C43.7645 51.4584 43.7783 51.7974 43.9387 52.0752C44.0991 52.353 44.3857 52.5344 44.7055 52.5604C45.2452 52.6041 46.7779 52.7146 48.4839 52.7146C50.554 52.7146 52.879 52.5518 53.9913 51.9093C55.1962 51.2138 56.0313 50.0517 56.3206 48.7157C58.7154 48.0871 61.8444 46.8573 65.2333 45.2062C67.132 44.2821 69.0848 43.2422 71.0375 42.1152C72.028 41.5432 73.0073 40.9534 73.9591 40.3586C73.9648 40.3589 73.9704 40.3598 73.9762 40.36C82.1157 40.5934 84.9332 46.4438 84.8557 51.841ZM54.4749 47.8643C54.4124 48.8464 53.8667 49.7261 53.0147 50.2179C52.0912 50.7514 48.9185 50.8232 46.3136 50.7041C47.5123 48.3893 49.1606 45.6777 50.0851 45.1437C50.958 44.6398 52.0133 44.6178 52.9086 45.0849C53.4007 45.3411 53.8081 45.732 54.087 46.2155C54.3771 46.7185 54.5112 47.2886 54.4749 47.8643Z" fill="white"/>
<path d="M54.3753 30.0391C52.2214 30.0391 50.4691 31.7914 50.4691 33.9453C50.4691 36.0992 52.2214 37.8516 54.3753 37.8516C56.5292 37.8516 58.2816 36.0992 58.2816 33.9453C58.2816 31.7914 56.5292 30.0391 54.3753 30.0391ZM54.3753 35.8985C53.2984 35.8985 52.4222 35.0223 52.4222 33.9453C52.4222 32.8684 53.2984 31.9922 54.3753 31.9922C55.4523 31.9922 56.3284 32.8684 56.3284 33.9453C56.3284 35.0223 55.4523 35.8985 54.3753 35.8985Z" fill="white"/>
<path d="M49.4925 56.2802C47.3386 56.2802 45.5862 58.0326 45.5862 60.1865C45.5862 62.3404 47.3386 64.0927 49.4925 64.0927C51.6464 64.0927 53.3987 62.3404 53.3987 60.1865C53.3987 58.0326 51.6464 56.2802 49.4925 56.2802ZM49.4925 62.1396C48.4155 62.1396 47.5394 61.2634 47.5394 60.1865C47.5394 59.1095 48.4155 58.2333 49.4925 58.2333C50.5694 58.2333 51.4456 59.1095 51.4456 60.1865C51.4456 61.2634 50.5694 62.1396 49.4925 62.1396Z" fill="white"/>
<path d="M59.2581 62.1396C57.1042 62.1396 55.3519 63.892 55.3519 66.0459C55.3519 68.1998 57.1042 69.9521 59.2581 69.9521C61.412 69.9521 63.1644 68.1998 63.1644 66.0459C63.1644 63.892 61.412 62.1396 59.2581 62.1396ZM59.2581 67.999C58.1812 67.999 57.305 67.1229 57.305 66.0459C57.305 64.9689 58.1812 64.0928 59.2581 64.0928C60.3351 64.0928 61.2112 64.9689 61.2112 66.0459C61.2112 67.1229 60.3351 67.999 59.2581 67.999Z" fill="white"/>
<path d="M70.9769 60.1865C68.823 60.1865 67.0706 61.9388 67.0706 64.0927C67.0706 66.2466 68.823 67.999 70.9769 67.999C73.1308 67.999 74.8831 66.2466 74.8831 64.0927C74.8831 61.9388 73.1308 60.1865 70.9769 60.1865ZM70.9769 66.0458C69.8999 66.0458 69.0237 65.1697 69.0237 64.0927C69.0237 63.0158 69.8999 62.1396 70.9769 62.1396C72.0538 62.1396 72.93 63.0158 72.93 64.0927C72.93 65.1697 72.0538 66.0458 70.9769 66.0458Z" fill="white"/>
<path d="M78.7894 50.4208C76.6355 50.4208 74.8831 52.1732 74.8831 54.3271C74.8831 56.481 76.6355 58.2333 78.7894 58.2333C80.9433 58.2333 82.6956 56.481 82.6956 54.3271C82.6956 52.1732 80.9433 50.4208 78.7894 50.4208ZM78.7894 56.2802C77.7124 56.2802 76.8362 55.404 76.8362 54.3271C76.8362 53.2501 77.7124 52.374 78.7894 52.374C79.8663 52.374 80.7425 53.2501 80.7425 54.3271C80.7425 55.404 79.8663 56.2802 78.7894 56.2802Z" fill="white"/>
</g>
<path fill-rule="evenodd" clip-rule="evenodd" d="M10.6145 35.3974L14.4996 20.8978L-1.54842e-06 24.783L10.6145 35.3974ZM9.63919 31.7577L11.8352 23.5623L3.63972 25.7582L9.63919 31.7577Z" fill="url(#paint0_linear_1249_1426)"/>
<path fill-rule="evenodd" clip-rule="evenodd" d="M110.863 22.5585L112.172 37.5125L124.468 28.9025L110.863 22.5585ZM113.025 25.6452L113.764 34.0974L120.714 29.2309L113.025 25.6452Z" fill="url(#paint1_linear_1249_1426)"/>
<path d="M68.8774 0L72.3415 6H65.4133L68.8774 0Z" fill="url(#paint2_linear_1249_1426)"/>
<path d="M121.363 62.8284L119.57 69.5206L114.671 64.6216L121.363 62.8284Z" fill="url(#paint3_linear_1249_1426)"/>
<path d="M19.5343 69.1927L25.5343 72.6569L19.5343 76.121L19.5343 69.1927Z" fill="url(#paint4_linear_1249_1426)"/>
<defs>
<linearGradient id="paint0_linear_1249_1426" x1="10.6145" y1="35.3974" x2="6.12826" y2="18.6547" gradientUnits="userSpaceOnUse">
<stop stop-color="#FF455B"/>
<stop offset="1" stop-color="#FF7245"/>
</linearGradient>
<linearGradient id="paint1_linear_1249_1426" x1="110.863" y1="22.5585" x2="120.805" y2="36.7572" gradientUnits="userSpaceOnUse">
<stop stop-color="#FF455B"/>
<stop offset="1" stop-color="#FF7245"/>
</linearGradient>
<linearGradient id="paint2_linear_1249_1426" x1="68.8774" y1="3.12331e-08" x2="68.8774" y2="10.6667" gradientUnits="userSpaceOnUse">
<stop stop-color="#FF455B"/>
<stop offset="1" stop-color="#FF7245"/>
</linearGradient>
<linearGradient id="paint3_linear_1249_1426" x1="121.363" y1="62.8284" x2="113.82" y2="70.3709" gradientUnits="userSpaceOnUse">
<stop stop-color="#FF455B"/>
<stop offset="1" stop-color="#FF7245"/>
</linearGradient>
<linearGradient id="paint4_linear_1249_1426" x1="19.5343" y1="69.1927" x2="24.8676" y2="78.4304" gradientUnits="userSpaceOnUse">
<stop stop-color="#FF455B"/>
<stop offset="1" stop-color="#FF7245"/>
</linearGradient>
<clipPath id="clip0_1249_1426">
<rect width="50" height="50" fill="white" transform="translate(37 24)"/>
</clipPath>
</defs>
</svg>
