<svg width="125" height="79" viewBox="0 0 125 79" fill="none" xmlns="http://www.w3.org/2000/svg">
<g opacity="0.5" clip-path="url(#clip0_1041_1578)">
<path d="M58.5426 67.179V54.3909C58.5426 53.9502 58.1854 53.593 57.7447 53.593H52.4255C51.9848 53.593 51.6277 53.9502 51.6277 54.3909C51.6277 54.8317 51.9848 55.1888 52.4255 55.1888H56.9468V67.179C55.4239 67.5403 54.2872 68.9107 54.2872 70.5425C54.2872 72.449 55.8382 74 57.7447 74C59.6512 74 61.2021 72.449 61.2021 70.5425C61.2021 68.9107 60.0654 67.5403 58.5426 67.179ZM57.7447 72.4042C56.7182 72.4042 55.883 71.569 55.883 70.5425C55.883 69.516 56.7182 68.6808 57.7447 68.6808C58.7712 68.6808 59.6064 69.516 59.6064 70.5425C59.6064 71.569 58.7712 72.4042 57.7447 72.4042Z" fill="white"/>
<path d="M67.0532 67.179V54.3909C67.0532 53.9502 66.6961 53.593 66.2553 53.593H60.9363C60.4955 53.593 60.1384 53.9502 60.1384 54.3909C60.1384 54.8317 60.4955 55.1888 60.9363 55.1888H65.4575V67.179C63.9346 67.5403 62.7979 68.9107 62.7979 70.5425C62.7979 72.449 64.3488 74 66.2553 74C68.1618 74 69.7128 72.449 69.7128 70.5425C69.7128 68.9107 68.5761 67.5403 67.0532 67.179ZM66.2553 72.4042C65.2288 72.4042 64.3936 71.569 64.3936 70.5425C64.3936 69.516 65.2288 68.6808 66.2553 68.6808C67.2818 68.6808 68.117 69.516 68.117 70.5425C68.117 71.569 67.2818 72.4042 66.2553 72.4042Z" fill="white"/>
<path d="M80.617 61.7659C78.9852 61.7659 77.6148 62.9026 77.2535 64.4255H75.5638V54.3909C75.5638 53.9502 75.2067 53.593 74.766 53.593H69.4468C69.0061 53.593 68.6489 53.9502 68.6489 54.3909C68.6489 54.8317 69.0061 55.1888 69.4468 55.1888H73.9681V65.2234C73.9681 65.6641 74.3252 66.0212 74.766 66.0212H77.2535C77.6148 67.5441 78.9852 68.6808 80.617 68.6808C82.5235 68.6808 84.0745 67.1298 84.0745 65.2234C84.0745 63.3169 82.5235 61.7659 80.617 61.7659ZM80.617 67.0851C79.5905 67.0851 78.7553 66.2498 78.7553 65.2234C78.7553 64.1969 79.5905 63.3617 80.617 63.3617C81.6435 63.3617 82.4787 64.1969 82.4787 65.2234C82.4787 66.2498 81.6435 67.0851 80.617 67.0851Z" fill="white"/>
<path d="M85.1001 41.1869C84.0248 39.8518 82.5643 38.8627 80.9392 38.358C80.7562 34.5811 79.1891 31.0571 76.4881 28.3786C73.6406 25.555 69.864 24 65.8538 24C60.5878 24 55.7149 26.746 52.9745 31.2114C52.3081 31.0013 51.6154 30.8952 50.907 30.8952C47.6478 30.8952 44.845 33.1959 44.1691 36.3319C39.9834 37.4178 37 41.2328 37 45.6065C37 50.8902 41.2985 55.1888 46.5822 55.1888H48.4362V64.4255H46.7465C46.3852 62.9027 45.0148 61.766 43.383 61.766C41.4765 61.766 39.9255 63.3169 39.9255 65.2234C39.9255 67.1299 41.4765 68.6809 43.383 68.6809C45.0148 68.6809 46.3852 67.5442 46.7465 66.0213H49.234C49.6748 66.0213 50.0319 65.6642 50.0319 65.2234V54.391C50.0319 53.9502 49.6748 53.5931 49.234 53.5931H46.5822C42.1785 53.5931 38.5957 50.0103 38.5957 45.6065C38.5957 41.8062 41.2973 38.512 45.0195 37.7738C45.3551 37.7073 45.6111 37.4341 45.6554 37.0948C45.9989 34.4702 48.2566 32.4911 50.907 32.4911C51.6362 32.4911 52.3433 32.6371 53.0087 32.9251C53.386 33.0884 53.8252 32.9384 54.0239 32.5789C56.4052 28.2715 60.9382 25.5957 65.8538 25.5957C73.2351 25.5957 79.2943 31.5998 79.3609 38.98C79.3641 39.3487 79.6197 39.667 79.9788 39.7501C83.1733 40.4894 85.4044 43.2981 85.4044 46.5802C85.4044 50.4471 82.2585 53.5931 78.3916 53.5931H77.9574C77.5167 53.5931 77.1596 53.9502 77.1596 54.391C77.1596 54.8317 77.5167 55.1888 77.9574 55.1888H78.3915C83.1382 55.1888 87 51.327 87 46.5802C87 44.6233 86.3252 42.7079 85.1001 41.1869ZM43.383 67.0851C42.3565 67.0851 41.5213 66.2499 41.5213 65.2234C41.5213 64.1969 42.3565 63.3617 43.383 63.3617C44.4095 63.3617 45.2447 64.1969 45.2447 65.2234C45.2447 66.2499 44.4095 67.0851 43.383 67.0851Z" fill="white"/>
<path d="M75.9034 39.8092H75.9107C76.3514 39.8052 76.7053 39.4447 76.7014 39.0041C76.6894 37.6898 76.4414 36.4038 75.964 35.1817C75.8036 34.7712 75.3411 34.5684 74.9305 34.7287C74.52 34.889 74.3173 35.3517 74.4776 35.7622C74.8842 36.803 75.0954 37.8987 75.1055 39.0186C75.1097 39.4569 75.4661 39.8092 75.9034 39.8092Z" fill="white"/>
<path d="M72.987 33.2294C73.1448 33.4204 73.3728 33.5192 73.6026 33.5192C73.7816 33.5192 73.9616 33.4593 74.1102 33.3364C74.4499 33.0558 74.4979 32.5529 74.2172 32.2131C72.1396 29.6979 69.0912 28.2553 65.8539 28.2553C65.4132 28.2553 65.0561 28.6125 65.0561 29.0532C65.0561 29.494 65.4132 29.8511 65.8539 29.8511C68.6135 29.8511 71.2134 31.0824 72.987 33.2294Z" fill="white"/>
</g>
<path fill-rule="evenodd" clip-rule="evenodd" d="M10.6145 35.3974L14.4996 20.8978L-1.54842e-06 24.783L10.6145 35.3974ZM9.63919 31.7577L11.8352 23.5623L3.63972 25.7582L9.63919 31.7577Z" fill="url(#paint0_linear_1041_1578)"/>
<path fill-rule="evenodd" clip-rule="evenodd" d="M110.863 22.5585L112.172 37.5125L124.468 28.9025L110.863 22.5585ZM113.025 25.6452L113.764 34.0974L120.714 29.2309L113.025 25.6452Z" fill="url(#paint1_linear_1041_1578)"/>
<path d="M68.8774 0L72.3415 6H65.4133L68.8774 0Z" fill="url(#paint2_linear_1041_1578)"/>
<path d="M121.363 62.8284L119.57 69.5206L114.671 64.6216L121.363 62.8284Z" fill="url(#paint3_linear_1041_1578)"/>
<path d="M19.5343 69.1927L25.5343 72.6569L19.5343 76.121L19.5343 69.1927Z" fill="url(#paint4_linear_1041_1578)"/>
<defs>
<linearGradient id="paint0_linear_1041_1578" x1="10.6145" y1="35.3974" x2="6.12826" y2="18.6547" gradientUnits="userSpaceOnUse">
<stop stop-color="#FF455B"/>
<stop offset="1" stop-color="#FF7245"/>
</linearGradient>
<linearGradient id="paint1_linear_1041_1578" x1="110.863" y1="22.5585" x2="120.805" y2="36.7572" gradientUnits="userSpaceOnUse">
<stop stop-color="#FF455B"/>
<stop offset="1" stop-color="#FF7245"/>
</linearGradient>
<linearGradient id="paint2_linear_1041_1578" x1="68.8774" y1="3.12331e-08" x2="68.8774" y2="10.6667" gradientUnits="userSpaceOnUse">
<stop stop-color="#FF455B"/>
<stop offset="1" stop-color="#FF7245"/>
</linearGradient>
<linearGradient id="paint3_linear_1041_1578" x1="121.363" y1="62.8284" x2="113.82" y2="70.3709" gradientUnits="userSpaceOnUse">
<stop stop-color="#FF455B"/>
<stop offset="1" stop-color="#FF7245"/>
</linearGradient>
<linearGradient id="paint4_linear_1041_1578" x1="19.5343" y1="69.1927" x2="24.8676" y2="78.4304" gradientUnits="userSpaceOnUse">
<stop stop-color="#FF455B"/>
<stop offset="1" stop-color="#FF7245"/>
</linearGradient>
<clipPath id="clip0_1041_1578">
<rect width="50" height="50" fill="white" transform="translate(37 24)"/>
</clipPath>
</defs>
</svg>
